<?xml version="1.0" encoding="utf-8"?>
<!-- Generator: Adobe Illustrator 16.0.0, SVG Export Plug-In . SVG Version: 6.00 Build 0)  -->
<!DOCTYPE svg PUBLIC "-//W3C//DTD SVG 1.1//EN" "http://www.w3.org/Graphics/SVG/1.1/DTD/svg11.dtd">
<svg version="1.1" id="Layer_1" xmlns="http://www.w3.org/2000/svg" xmlns:xlink="http://www.w3.org/1999/xlink" x="0px" y="0px"
	 width="150px" height="55px" viewBox="0 0 150 55" enable-background="new 0 0 150 55" xml:space="preserve">
<g>
	<path fill="#FFFFFF" d="M37.825,6.824c-1.223,0.608-2.426,1.26-3.61,1.94c-1.188,0.676-2.358,1.383-3.501,2.132
		c-1.141,0.747-2.258,1.538-3.318,2.397c-0.529,0.427-1.043,0.876-1.533,1.348c-0.487,0.474-0.95,0.973-1.359,1.507
		c-0.41,0.532-0.768,1.11-0.982,1.728l-0.022,0.06l-0.017,0.055l-0.036,0.124l-0.074,0.25l-0.114,0.485l-0.094,0.5l-0.073,0.504
		c-0.084,0.676-0.12,1.36-0.127,2.045c-0.007,0.683,0.016,1.368,0.058,2.054c0.088,1.369,0.253,2.735,0.479,4.092
		c0.111,0.676,0.241,1.352,0.384,2.023c0.072,0.336,0.148,0.668,0.231,1c0.041,0.166,0.084,0.33,0.131,0.492
		c0.021,0.08,0.045,0.157,0.07,0.233c0.023,0.076,0.054,0.158,0.067,0.188L24.48,32.2l-0.142,0.161
		c-0.692,0.779-1.381,1.56-2.065,2.351c-0.683,0.781-1.375,1.57-2.016,2.367c-0.645,0.826-1.308,1.635-1.935,2.459
		c-0.627,0.826-1.229,1.666-1.753,2.543c-0.261,0.44-0.501,0.889-0.7,1.349c-0.194,0.461-0.353,0.934-0.404,1.393
		c-0.054,0.463,0.016,0.897,0.26,1.211c0.033,0.039,0.062,0.078,0.1,0.113l0.026,0.026l0.006,0.009c-0.016-0.017,0,0,0-0.002
		l0.019,0.018l0.071,0.066c0.076,0.059,0.163,0.127,0.261,0.188c0.194,0.127,0.409,0.233,0.632,0.332
		c0.901,0.383,1.903,0.598,2.902,0.768c1.004,0.162,2.023,0.271,3.043,0.341c1.023,0.069,2.048,0.102,3.073,0.102
		s2.051-0.033,3.068-0.109c1.017-0.078,2.03-0.199,2.985-0.465c0.96-0.268,1.879-0.67,2.693-1.236
		c0.817-0.561,1.525-1.278,2.104-2.098c0.582-0.816,1.037-1.73,1.39-2.688c0.093-0.236,0.169-0.484,0.25-0.726l0.239-0.752
		l0.476-1.498l0.954-3l0.021-0.067l0.043-0.051c0.929-1.173,1.867-2.337,2.818-3.49c0.477-0.576,0.955-1.148,1.442-1.722
		c0.486-0.565,0.98-1.129,1.502-1.678c0.13-0.138,0.264-0.272,0.404-0.408c0.07-0.067,0.142-0.133,0.217-0.2
		c0.08-0.066,0.155-0.131,0.266-0.201c0.029-0.016,0.062-0.036,0.104-0.054c0.026-0.009,0.048-0.019,0.086-0.029
		c0.035-0.007,0.086-0.019,0.16-0.006c0.009,0.001,0.042,0.009,0.03,0.006h0.004l0.008,0.002l0.033,0.01
		c0.015,0.007,0.032,0.011,0.045,0.017l0.033,0.014c0.042,0.021,0.078,0.043,0.11,0.065c0.123,0.093,0.195,0.188,0.263,0.277
		c0.13,0.186,0.221,0.361,0.306,0.545c0.167,0.355,0.298,0.717,0.42,1.078c0.123,0.363,0.232,0.725,0.336,1.088
		c0.208,0.73,0.393,1.461,0.564,2.195c0.173,0.733,0.333,1.467,0.482,2.211l-0.205-0.221c0.525,0.147,1.032,0.315,1.541,0.502
		c0.506,0.186,1.007,0.389,1.498,0.625c0.49,0.237,0.974,0.502,1.416,0.862c0.217,0.187,0.432,0.396,0.578,0.69
		c0.122,0.273,0.205,0.541,0.272,0.814c0.132,0.541,0.2,1.09,0.241,1.637c0.039,0.547,0.051,1.095,0.041,1.64
		c-0.004,0.271-0.013,0.545-0.023,0.815l-0.015,0.402c-0.002,0.066-0.006,0.137-0.002,0.188c-0.003-0.01,0.003,0.037,0.002,0.027
		c-0.001-0.006,0.004,0.012,0.007,0.02c0.005,0.021,0.017,0.043,0.029,0.068c0.111,0.199,0.292,0.41,0.458,0.611
		c0.17,0.207,0.346,0.412,0.512,0.631c0.164,0.219,0.323,0.447,0.457,0.697c0.132,0.246,0.245,0.523,0.266,0.828
		c0.008,0.15-0.009,0.309-0.062,0.453l-0.033,0.098l-0.044,0.102c-0.028,0.074-0.064,0.129-0.098,0.197
		c-0.144,0.246-0.324,0.463-0.519,0.658c-0.396,0.391-0.85,0.697-1.323,0.957c-0.477,0.26-0.977,0.469-1.5,0.611
		c-0.264,0.065-0.53,0.121-0.813,0.121c-0.261,0-0.544-0.031-0.806-0.084c-0.532-0.111-1.033-0.336-1.49-0.623
		c-0.455-0.291-0.864-0.648-1.233-1.041c-0.367-0.396-0.699-0.82-0.976-1.279c0.292,0.451,0.639,0.865,1.017,1.24
		c0.378,0.375,0.795,0.713,1.251,0.979c0.456,0.267,0.947,0.474,1.461,0.563c0.26,0.047,0.509,0.069,0.778,0.063
		c0.25-0.004,0.509-0.063,0.758-0.135c0.502-0.146,0.986-0.361,1.442-0.621c0.455-0.263,0.888-0.569,1.25-0.94
		c0.179-0.187,0.339-0.392,0.463-0.613c0.027-0.055,0.061-0.111,0.082-0.166l0.034-0.084l0.031-0.096
		c0.038-0.107,0.047-0.226,0.038-0.345c-0.02-0.231-0.119-0.473-0.243-0.694c-0.125-0.224-0.279-0.433-0.444-0.64
		c-0.164-0.209-0.339-0.405-0.515-0.61c-0.087-0.103-0.176-0.205-0.264-0.312c-0.086-0.108-0.174-0.22-0.25-0.354
		c-0.019-0.037-0.039-0.07-0.054-0.115c-0.009-0.023-0.015-0.039-0.023-0.074c-0.008-0.045-0.006-0.031-0.011-0.078
		c-0.003-0.084-0.002-0.145-0.002-0.219l0.007-0.402c0.004-0.271,0.006-0.539,0.004-0.809c-0.004-0.535-0.023-1.07-0.07-1.6
		c-0.048-0.529-0.122-1.056-0.255-1.562c-0.065-0.25-0.148-0.498-0.249-0.716c-0.097-0.19-0.27-0.366-0.463-0.522
		c-0.39-0.312-0.854-0.559-1.327-0.774c-0.474-0.219-0.964-0.408-1.461-0.58c-0.496-0.172-1.004-0.328-1.505-0.463l-0.167-0.045
		l-0.038-0.175c-0.154-0.729-0.323-1.456-0.502-2.182c-0.18-0.726-0.371-1.445-0.582-2.158c-0.107-0.354-0.218-0.711-0.34-1.057
		c-0.123-0.347-0.253-0.688-0.406-1.007c-0.076-0.157-0.161-0.313-0.25-0.436c-0.042-0.057-0.09-0.107-0.117-0.127
		c-0.006-0.004-0.009-0.006-0.009-0.006h0.001c0.002,0.002,0.008,0.004,0.012,0.006l0.007,0.002l-0.008-0.004l-0.008-0.002h-0.004
		c-0.017-0.004,0.015,0.004,0.02,0.004c0.104,0.012,0.105-0.01,0.112-0.008l-0.018,0.01c-0.047,0.031-0.113,0.086-0.175,0.143
		c-0.064,0.056-0.127,0.115-0.191,0.179c-0.126,0.127-0.253,0.258-0.377,0.391c-0.5,0.539-0.98,1.104-1.46,1.673
		c-0.479,0.565-0.952,1.141-1.422,1.717c-0.938,1.158-1.867,2.324-2.782,3.498l0.063-0.117l-0.931,3.006l-0.466,1.504l-0.233,0.748
		c-0.084,0.258-0.165,0.514-0.261,0.766c-0.372,1.01-0.854,1.988-1.482,2.879c-0.626,0.889-1.402,1.68-2.298,2.299
		c-0.893,0.623-1.898,1.068-2.931,1.355c-1.041,0.293-2.092,0.414-3.137,0.498c-1.044,0.084-2.087,0.111-3.13,0.109
		s-2.086-0.035-3.126-0.109c-1.041-0.072-2.082-0.186-3.119-0.357c-0.518-0.088-1.037-0.19-1.551-0.321
		c-0.515-0.136-1.028-0.289-1.533-0.509c-0.251-0.108-0.502-0.235-0.744-0.396c-0.121-0.076-0.24-0.166-0.366-0.271L15.35,46.79
		l-0.018-0.019l-0.019-0.018l-0.01-0.01l-0.042-0.043c-0.056-0.057-0.105-0.119-0.155-0.184c-0.096-0.132-0.179-0.271-0.246-0.418
		c-0.063-0.148-0.111-0.304-0.143-0.457c-0.06-0.313-0.06-0.619-0.024-0.91c0.072-0.588,0.26-1.117,0.478-1.617
		c0.222-0.504,0.479-0.977,0.757-1.434c0.554-0.916,1.178-1.773,1.822-2.604c0.644-0.834,1.313-1.638,1.958-2.453
		c0.675-0.824,1.363-1.601,2.059-2.381c0.696-0.781,1.393-1.56,2.098-2.332l-0.048,0.381c-0.058-0.125-0.081-0.209-0.109-0.299
		c-0.027-0.086-0.052-0.177-0.075-0.261c-0.046-0.172-0.089-0.342-0.129-0.512c-0.082-0.342-0.155-0.684-0.225-1.025
		c-0.138-0.684-0.26-1.366-0.366-2.057c-0.211-1.378-0.366-2.765-0.434-4.159c-0.031-0.699-0.043-1.397-0.025-2.097
		c0.02-0.699,0.067-1.401,0.166-2.098l0.084-0.522l0.105-0.519c0.044-0.172,0.087-0.349,0.132-0.52l0.078-0.247l0.039-0.124
		l0.021-0.069l0.024-0.063c0.251-0.686,0.644-1.288,1.079-1.837c0.438-0.548,0.927-1.046,1.434-1.518
		c0.511-0.469,1.042-0.912,1.587-1.333c1.09-0.843,2.231-1.61,3.395-2.334c1.165-0.723,2.354-1.405,3.559-2.053
		C35.361,8.008,36.583,7.393,37.825,6.824"/>
	<path fill="#FFFFFF" d="M10.349,49.18c0,0,0.198-0.01,0.568-0.027c0.371-0.016,0.914-0.043,1.604-0.069
		c0.692-0.022,1.532-0.06,2.496-0.086c0.963-0.033,2.05-0.07,3.235-0.097c1.187-0.026,2.47-0.061,3.828-0.082
		c1.358-0.022,2.792-0.055,4.274-0.065c1.482-0.014,3.013-0.041,4.569-0.041c1.556-0.008,3.137-0.014,4.718-0.019
		c1.581,0.005,3.162,0.011,4.718,0.017c1.556,0.002,3.087,0.029,4.569,0.043c1.481,0.011,2.914,0.041,4.273,0.063
		c1.359,0.022,2.643,0.057,3.828,0.084c1.186,0.024,2.273,0.063,3.236,0.098c0.963,0.027,1.804,0.059,2.494,0.086
		c0.692,0.025,1.235,0.055,1.605,0.07c0.372,0.018,0.568,0.027,0.568,0.027s-0.197,0.008-0.568,0.024
		c-0.37,0.017-0.913,0.045-1.605,0.069c-0.69,0.027-1.53,0.062-2.494,0.091c-0.963,0.032-2.05,0.065-3.236,0.094
		c-1.185,0.031-2.469,0.063-3.828,0.082c-1.359,0.026-2.792,0.056-4.273,0.065c-1.482,0.013-3.014,0.037-4.569,0.037
		c-1.556,0.01-3.138,0.015-4.718,0.021c-1.581-0.006-3.162-0.01-4.718-0.021c-1.557,0-3.087-0.026-4.569-0.039
		c-1.482-0.01-2.916-0.041-4.274-0.065c-1.358-0.021-2.642-0.054-3.828-0.082c-1.185-0.024-2.272-0.062-3.235-0.092
		c-0.964-0.029-1.804-0.064-2.496-0.091c-0.691-0.026-1.234-0.055-1.604-0.069C10.546,49.188,10.349,49.18,10.349,49.18"/>
	<path fill="#FFFFFF" d="M47.76,8.452c-2.379-3.973-7.05-2.38-9.408-1.927c-1.757,0.337-5.79,0.978-6.696,2.543
		c-2.129,3.681,1.979,15.261,5.385,17.76c1.64,1.202,6.364,0.967,7.775-0.507C47.739,23.266,49.941,12.091,47.76,8.452"/>
	<path fill="#FFFFFF" d="M15.639,43.965c0.237-1.16,2.224-3.861,2.224-3.861c0.337,0,2.597,1.109,2.851,1.763
		c0.244,0.625-0.024,2.27-0.024,2.27c-0.181,0.216-0.233-1.299-1.049-0.817c-0.712,0.42-0.591,1.637-0.3,1.904
		c0.267,0.247,1.109-0.267,1.109-0.267s1.063,1.709,0.521,2.385c-0.541,0.673-4.325,0.054-5.187-0.932
		C15.307,45.863,15.261,45.383,15.639,43.965"/>
	<path fill="#FFFFFF" d="M56.567,46.395C56.431,46.656,55.959,47,55.959,47c-0.098-0.029-0.414-0.182-0.459-0.365
		c-0.041-0.174,0.083-0.529,0.083-0.529s-0.052,0.228,0.17,0.185c0.222-0.045,0.357-0.254,0.172-0.399
		c-0.083-0.064-0.351-0.205-0.406,0.004c-0.028,0.104-0.367-0.664-0.056-0.761c0.892-0.271,1.053,0.392,1.149,0.604
		C56.7,45.934,56.72,46.102,56.567,46.395"/>
</g>
<g enable-background="new    ">
	<path fill="#FFFFFF" d="M60.252,17.936c-0.126-3.453-0.478-7.728-0.478-10.907c0-0.685,1.812-0.63,2.541-0.685
		c0.956,0,2.214-0.411,2.214,1.014c0,0.109,0,0.411-3.447,0.411l0.327,5.371l2.29-0.027c0.377,0,0.654,0.548,0.654,0.877
		c0,0.74-2.189,0.438-2.868,0.548l0.075,1.59c0.176,3.946,0.151,5.097,0.151,9.043c0,0.384-0.226,0.685-0.579,0.685
		c-0.227,0-0.629-0.082-0.729-0.356C60.403,23.937,60.302,19.47,60.252,17.936z"/>
	<path fill="#FFFFFF" d="M67.473,7.96c0.151-2.521,1.661-1.863,2.089,0c0.629,2.741,1.107,5.234,3.85,19.759
		c0,0.603-0.755,1.069-1.208,0.192l-0.906-4.933l-3.396,0.548c-0.202,1.288-0.377,3.727-0.428,4.878
		c-0.05,0.658-1.132,0.493-1.107,0L67.473,7.96z M67.951,20.731c-0.025,0.192-0.05,1.26-0.05,1.48l3.145-0.494L68.58,9.522
		C68.479,11.194,68.026,19.032,67.951,20.731z"/>
	<path fill="#FFFFFF" d="M75.701,16.456c0-0.85-0.126-5.837-0.176-7.125c0-0.274-0.151-2.686-0.176-2.987V6.234
		c0-0.63,0.654-0.795,1.157-0.795c3.473,0,4.705,2.713,4.705,5.865c0,2.521-0.88,4.056-2.49,5.316
		c2.894,1.397,3.598,5.865,3.598,8.934c0,0.493-0.276,0.685-0.729,0.685c-0.302,0-0.428,0-0.554-0.438
		c-0.125-2.056-0.604-7.865-3.522-7.865c-0.024,0-0.201,0.027-0.251,0.027c-0.277,3.097-0.051,6.221-0.227,9.345
		c-0.328,0.493-1.032,0.521-1.334,0C75.727,25.664,75.727,18.1,75.701,16.456z M77.085,15.798c1.786-0.384,2.769-2.521,2.769-4.248
		c0-1.453-0.555-4.467-2.365-4.467c-0.102,0-0.881,0-0.881,0.22L77.085,15.798z"/>
	<path fill="#FFFFFF" d="M84.76,24.567v-5.426c0-3.919-0.352-6.44-0.352-10.359V7.385c4.025-0.356,4.479-0.055,4.479,0.548
		c0,0.192-0.127,0.603-0.303,0.686h-2.742c-0.176,0-0.176,0.137-0.176,0.219c0,2.905,0.251,5.043,0.402,8.03
		c0.377,0.11,2.49,0.027,2.918,0.027c0.855,0.027,1.436,1.617,0.277,1.617h-3.195l0.051,6.413c0.604,0.165,3.799-0.521,3.799,0.685
		c0,0.329-0.15,0.658-0.479,0.712h-0.125c-0.932,0.083-4.504,0.384-4.529-0.411L84.76,24.567z"/>
	<path fill="#FFFFFF" d="M92.385,25.499c0.453,0.055,0.754,0.576,1.258,0.576c0.68,0,1.132-1.315,1.232-1.863
		c0.881-4.33,0.83-8.825,0.981-13.565c0.025-1.206,0-2.494,0.151-3.7c0.075-0.384,0.075-0.768,0.479-0.768
		c0.428,0.055,1.006,0.247,1.006,0.877c-0.528,5.454-0.353,11.318-0.932,15.648c-0.251,2-0.629,4.769-2.843,4.769
		c-0.101,0-0.227,0-0.353-0.028c-0.68-0.082-1.686-0.411-1.686-1.315v-0.164C91.73,25.554,92.082,25.472,92.385,25.499z"/>
	<path fill="#FFFFFF" d="M100.26,7.96c0.151-2.521,1.661-1.863,2.089,0c0.629,2.741,1.106,5.234,3.85,19.759
		c0,0.603-0.755,1.069-1.208,0.192l-0.906-4.933l-3.396,0.548c-0.201,1.288-0.377,3.727-0.428,4.878
		c-0.051,0.658-1.132,0.493-1.107,0L100.26,7.96z M100.738,20.731c-0.025,0.192-0.051,1.26-0.051,1.48l3.146-0.494l-2.466-12.195
		C101.267,11.194,100.813,19.032,100.738,20.731z"/>
	<path fill="#FFFFFF" d="M108.363,7.96c0.478-0.986,1.207-0.109,1.459,0.274c1.51,4.713,2.541,9.509,4.378,14.415l0.251-3.837
		c0.277-3.453,0.303-6.44,0.277-9.893c0.101-0.466,0.554-0.685,0.956-0.685c0.302,0,0.554,0.082,0.704,0.356
		c-0.452,5.919-0.654,12.223-0.83,18.526l-0.025,0.356c-0.05,0.137-0.377,0.521-0.604,0.521s-0.604-0.329-0.704-0.521
		c-1.56-5.125-3.321-10.14-4.831-15.292l-0.176,15.621c-0.579,1.425-1.46,0.685-1.484-0.137L108.363,7.96z"/>
	<path fill="#FFFFFF" d="M120.516,6.59h0.102c4.528,0.219,5.158,6.002,5.158,10.003c0,0.411-0.025,0.822-0.025,1.178
		c-0.127,5.207-1.484,9.4-5.763,9.4c-0.353,0-0.704-0.027-1.081-0.109c0,0,0.024-3.069,0.05-4.33
		c0.075-3.508,0.201-6.824,0.327-10.387c0.025-0.466,0.075-4.467,0.101-4.987l0.024-0.165C119.434,6.727,120.139,6.59,120.516,6.59z
		 M120.239,25.965c0.201,0.027,0.251,0.027,0.276,0.027c3.195,0,3.725-5.865,3.824-8.112c0.127-2.576,0.025-9.427-3.521-9.756
		L120.239,25.965z"/>
	<path fill="#FFFFFF" d="M132.492,7.056c5.586,0,6.342,19.485,0.806,20.006c-0.101,0-0.201,0.027-0.302,0.027
		c-2.113,0-3.271-1.37-3.875-3.892C128.794,21.553,126.178,7.056,132.492,7.056z M130.329,21.937
		c0.201,0.904,1.031,3.508,2.29,3.645c0.125,0.027,0.227,0,0.301,0c1.687-0.165,2.24-3.371,2.467-4.659
		c0.402-2.192,0.729-12.36-2.844-12.36h-0.201C128.543,8.947,129.852,19.936,130.329,21.937z"/>
</g>
<g enable-background="new    ">
	<path fill="#FFFFFF" d="M74.866,30.031c0.137-0.15,0.366-0.299,0.572-0.299c0.823,0,0.777,0.946,0.754,1.594v0.15
		c-0.045,2.491-0.319,4.934-0.365,7.425c-0.046,1.694-0.778,8.522,1.67,8.522c1.121,0,1.875-2.393,2.035-3.165
		c0.847-4.36,1.373-8.945,1.373-13.331V30.38c0-0.374,0.457-0.499,0.754-0.499c0.389,0,0.709,0.375,0.709,0.748l-0.022,0.374
		c-0.229,3.837-0.503,7.376-1.12,11.188l-0.047,0.323c-0.021,0.05-0.021,0.149-0.068,0.249c-0.273,1.795-0.938,5.906-3.477,5.906
		c-2.905,0-3.133-3.39-3.133-5.557v-0.449c0-0.149,0.023-3.363,0.046-4.56C74.614,35.413,74.614,32.723,74.866,30.031z"/>
	<path fill="#FFFFFF" d="M84.907,36.908c0.092-4.012,0.39-6.902,0.983-6.902c0.023,0,0.068,0,0.092,0.025
		c0.114,0.125,0.641,0.199,0.777,0.822c0.412,1.818,1.029,5.133,2.379,7.226c0.16-0.149,1.029-1.794,1.486-2.69l0.115-0.199
		c0.846-1.67,1.418-2.866,1.967-4.486c0.137-0.299,0.32-0.447,0.664-0.447c0.319,0.024,0.479,0.124,0.777,0.373
		c-0.16,5.531-0.068,11.088-0.184,16.62l-0.022,1.196c-0.114,0.299-0.366,0.598-0.731,0.598c-0.184,0-0.412-0.199-0.527-0.349
		l0.023-1.47c0.092-4.511-0.092-9.021,0.068-13.531c-0.549,1.072-1.098,2.144-1.578,3.265c-0.205,0.374-1.144,2.417-1.35,2.915
		c-0.137,0.324-0.754,1.097-1.098,0.25c-2.287-5.656-2.355-5.656-2.379-5.656c-0.503,4.51-0.549,9.119-0.594,13.68
		c-0.047,0.273-0.275,0.473-0.48,0.473c-0.138,0-0.549-0.174-0.641-0.349L84.907,36.908z"/>
	<path fill="#FFFFFF" d="M103.756,29.482c0.367,0,0.664,0.498,0.756,0.873c0.183,5.631,0.16,11.337,0.617,16.993
		c0.686-0.199,1.853-0.523,2.744-0.523c0.412,0,0.778,0.125,0.778,0.623c0,0.324-0.069,0.573-0.458,0.723
		c-0.777,0.299-1.807,0.249-2.607,0.499c-0.297,0.074-0.617,0.323-0.983,0.323c-0.274,0-0.663-0.349-0.709-0.673
		c-0.274-2.99-0.16-6.204-0.298-9.145l-0.297-6.154v-3.165C103.413,29.582,103.551,29.482,103.756,29.482z"/>
	<path fill="#FFFFFF" d="M111.625,31.027c0.138-2.292,1.51-1.694,1.898,0c0.572,2.492,1.007,4.76,3.5,17.966
		c0,0.548-0.686,0.972-1.098,0.175l-0.824-4.485l-3.088,0.498c-0.182,1.171-0.342,3.39-0.389,4.436
		c-0.045,0.599-1.029,0.448-1.006,0L111.625,31.027z M112.061,42.639c-0.023,0.175-0.047,1.146-0.047,1.346l2.859-0.448
		l-2.241-11.089C112.541,33.968,112.129,41.094,112.061,42.639z"/>
	<path fill="#FFFFFF" d="M119.105,38.752c0-0.772-0.113-5.307-0.16-6.479c0-0.249-0.137-2.441-0.16-2.716v-0.1
		c0-0.573,0.596-0.723,1.053-0.723c3.156,0,4.277,2.467,4.277,5.332c0,2.292-0.801,3.688-2.265,4.834
		c2.63,1.271,3.271,5.333,3.271,8.124c0,0.447-0.251,0.622-0.663,0.622c-0.274,0-0.389,0-0.503-0.398
		c-0.114-1.868-0.549-7.151-3.202-7.151c-0.022,0-0.183,0.025-0.229,0.025c-0.251,2.815-0.045,5.656-0.205,8.496
		c-0.297,0.449-0.938,0.474-1.213,0C119.129,47.125,119.129,40.247,119.105,38.752z M120.363,38.154
		c1.625-0.35,2.517-2.293,2.517-3.862c0-1.321-0.503-4.062-2.149-4.062c-0.092,0-0.801,0-0.801,0.199L120.363,38.154z"/>
</g>
</svg>
