<?xml version="1.0" encoding="utf-8"?>
<!-- Generator: Adobe Illustrator 19.0.0, SVG Export Plug-In . SVG Version: 6.00 Build 0)  -->
<svg version="1.1" id="Camada_1" xmlns="http://www.w3.org/2000/svg" xmlns:xlink="http://www.w3.org/1999/xlink" x="0px" y="0px"
	 viewBox="0 0 150 200" style="enable-background:new 0 0 150 200;" xml:space="preserve">
<style type="text/css">
	.st0{fill:#371B17;}
	.st1{fill:#D1752E;}
</style>
<path id="XMLID_7_" class="st0" d="M80.1,17.3c-2.8,1.4-5.6,2.9-8.4,4.4c-2.8,1.5-5.5,3.2-8.1,4.9c-2.7,1.7-5.3,3.5-7.7,5.5
	c-1.2,1-2.4,2-3.6,3.1c-1.1,1.1-2.2,2.2-3.2,3.4c-1,1.2-1.8,2.5-2.3,4l0,0.1l0,0.1l-0.1,0.3l-0.2,0.6l-0.3,1.1L46,46l-0.2,1.2
	c-0.2,1.5-0.3,3.1-0.3,4.7c0,1.6,0,3.1,0.1,4.7c0.2,3.1,0.6,6.3,1.1,9.4c0.3,1.6,0.6,3.1,0.9,4.6c0.2,0.8,0.3,1.5,0.5,2.3
	c0.1,0.4,0.2,0.8,0.3,1.1c0.1,0.2,0.1,0.4,0.2,0.5c0.1,0.2,0.1,0.4,0.2,0.4l0.2,0.5l-0.3,0.4c-1.6,1.8-3.2,3.6-4.8,5.4
	c-1.6,1.8-3.2,3.6-4.7,5.4c-1.5,1.9-3,3.7-4.5,5.6c-1.5,1.9-2.9,3.8-4.1,5.8c-0.6,1-1.2,2-1.6,3.1c-0.5,1-0.8,2.1-0.9,3.2
	c-0.1,1.1,0,2,0.6,2.8c0.1,0.1,0.1,0.2,0.2,0.3l0.1,0.1l0,0c0,0,0,0,0,0l0,0l0.2,0.2c0.2,0.1,0.4,0.3,0.6,0.4
	c0.4,0.3,0.9,0.5,1.5,0.8c2.1,0.9,4.4,1.4,6.7,1.8c2.3,0.4,4.7,0.6,7.1,0.8c2.4,0.2,4.8,0.2,7.1,0.2c2.4,0,4.8-0.1,7.1-0.3
	c2.4-0.2,4.7-0.5,6.9-1.1c2.2-0.6,4.4-1.5,6.3-2.8c1.9-1.3,3.5-2.9,4.9-4.8c1.4-1.9,2.4-4,3.2-6.1c0.2-0.5,0.4-1.1,0.6-1.7l0.6-1.7
	l1.1-3.4l2.2-6.9l0.1-0.2l0.1-0.1c2.2-2.7,4.3-5.3,6.6-8c1.1-1.3,2.2-2.6,3.4-3.9c1.1-1.3,2.3-2.6,3.5-3.8c0.3-0.3,0.6-0.6,0.9-0.9
	c0.2-0.2,0.3-0.3,0.5-0.5c0.2-0.2,0.4-0.3,0.6-0.5c0.1,0,0.1-0.1,0.2-0.1c0.1,0,0.1,0,0.2-0.1c0.1,0,0.2,0,0.4,0c0,0,0.1,0,0.1,0
	l0,0l0,0l0.1,0c0,0,0.1,0,0.1,0l0.1,0c0.1,0,0.2,0.1,0.3,0.1c0.3,0.2,0.5,0.4,0.6,0.6c0.3,0.4,0.5,0.8,0.7,1.2
	c0.4,0.8,0.7,1.6,1,2.5c0.3,0.8,0.5,1.7,0.8,2.5c0.5,1.7,0.9,3.3,1.3,5c0.4,1.7,0.8,3.4,1.1,5.1l-0.5-0.5c1.2,0.3,2.4,0.7,3.6,1.1
	c1.2,0.4,2.3,0.9,3.5,1.4c1.1,0.5,2.3,1.1,3.3,2c0.5,0.4,1,0.9,1.3,1.6c0.3,0.6,0.5,1.2,0.6,1.9c0.3,1.2,0.5,2.5,0.6,3.8
	c0.1,1.3,0.1,2.5,0.1,3.7c0,0.6,0,1.2-0.1,1.9l0,0.9c0,0.1,0,0.3,0,0.4c0,0,0,0.1,0,0.1c0,0,0,0,0,0c0,0,0,0.1,0.1,0.2
	c0.3,0.5,0.7,0.9,1.1,1.4c0.4,0.5,0.8,0.9,1.2,1.4c0.4,0.5,0.8,1,1.1,1.6c0.3,0.6,0.6,1.2,0.6,1.9c0,0.3,0,0.7-0.1,1l-0.1,0.2
	l-0.1,0.2c-0.1,0.2-0.2,0.3-0.2,0.4c-0.3,0.6-0.8,1.1-1.2,1.5c-0.9,0.9-2,1.6-3.1,2.2c-1.1,0.6-2.3,1.1-3.5,1.4
	c-0.6,0.2-1.2,0.3-1.9,0.3c-0.6,0-1.3-0.1-1.9-0.2c-1.2-0.3-2.4-0.8-3.5-1.4c-1.1-0.7-2-1.5-2.9-2.4c-0.9-0.9-1.6-1.9-2.3-2.9
	c0.7,1,1.5,2,2.4,2.8c0.9,0.9,1.9,1.6,2.9,2.2c1.1,0.6,2.2,1.1,3.4,1.3c0.6,0.1,1.2,0.2,1.8,0.1c0.6,0,1.2-0.1,1.8-0.3
	c1.2-0.3,2.3-0.8,3.4-1.4c1.1-0.6,2.1-1.3,2.9-2.2c0.4-0.4,0.8-0.9,1.1-1.4c0.1-0.1,0.1-0.3,0.2-0.4l0.1-0.2l0.1-0.2
	c0.1-0.2,0.1-0.5,0.1-0.8c0-0.5-0.3-1.1-0.6-1.6c-0.3-0.5-0.7-1-1-1.5c-0.4-0.5-0.8-0.9-1.2-1.4c-0.2-0.2-0.4-0.5-0.6-0.7
	c-0.2-0.2-0.4-0.5-0.6-0.8c0-0.1-0.1-0.2-0.1-0.3c0-0.1,0-0.1-0.1-0.2c0-0.1,0-0.1,0-0.2c0-0.2,0-0.3,0-0.5l0-0.9c0-0.6,0-1.2,0-1.8
	c0-1.2-0.1-2.4-0.2-3.7c-0.1-1.2-0.3-2.4-0.6-3.6c-0.2-0.6-0.3-1.1-0.6-1.6c-0.2-0.4-0.6-0.8-1.1-1.2c-0.9-0.7-2-1.3-3.1-1.8
	c-1.1-0.5-2.2-0.9-3.4-1.3c-1.2-0.4-2.3-0.8-3.5-1.1l-0.4-0.1l-0.1-0.4c-0.4-1.7-0.8-3.3-1.2-5c-0.4-1.7-0.9-3.3-1.4-4.9
	c-0.2-0.8-0.5-1.6-0.8-2.4c-0.3-0.8-0.6-1.6-0.9-2.3c-0.2-0.4-0.4-0.7-0.6-1c-0.1-0.1-0.2-0.3-0.3-0.3c0,0,0,0,0,0l0,0c0,0,0,0,0,0
	l0,0l0,0l0,0l0,0c0,0,0,0,0,0c0.2,0,0.2,0,0.3,0l0,0c-0.1,0.1-0.3,0.2-0.4,0.3c-0.1,0.1-0.3,0.3-0.4,0.4c-0.3,0.3-0.6,0.6-0.9,0.9
	c-1.2,1.2-2.3,2.5-3.4,3.8c-1.1,1.3-2.2,2.6-3.3,3.9c-2.2,2.6-4.3,5.3-6.5,8l0.1-0.3l-2.2,6.9l-1.1,3.4L83,95.3
	c-0.2,0.6-0.4,1.2-0.6,1.7c-0.9,2.3-2,4.6-3.4,6.6c-1.5,2-3.3,3.8-5.3,5.3c-2.1,1.4-4.4,2.4-6.8,3.1c-2.4,0.7-4.9,1-7.3,1.1
	c-2.4,0.2-4.9,0.3-7.3,0.3c-2.4,0-4.8-0.1-7.3-0.3c-2.4-0.2-4.8-0.4-7.3-0.8c-1.2-0.2-2.4-0.4-3.6-0.7c-1.2-0.3-2.4-0.7-3.6-1.2
	c-0.6-0.3-1.2-0.5-1.7-0.9c-0.3-0.2-0.6-0.4-0.8-0.6l-0.2-0.2l0,0l0,0l0,0l-0.1-0.1c-0.1-0.1-0.2-0.3-0.4-0.4
	c-0.2-0.3-0.4-0.6-0.6-1c-0.1-0.3-0.3-0.7-0.3-1c-0.1-0.7-0.1-1.4-0.1-2.1c0.2-1.3,0.6-2.6,1.1-3.7c0.5-1.1,1.1-2.2,1.8-3.3
	c1.3-2.1,2.7-4,4.2-6c1.5-1.9,3.1-3.7,4.6-5.6c1.6-1.9,3.2-3.7,4.8-5.5c1.6-1.8,3.2-3.6,4.9-5.3l-0.1,0.9c-0.1-0.3-0.2-0.5-0.3-0.7
	c-0.1-0.2-0.1-0.4-0.2-0.6c-0.1-0.4-0.2-0.8-0.3-1.2c-0.2-0.8-0.4-1.6-0.5-2.3c-0.3-1.6-0.6-3.1-0.9-4.7c-0.5-3.1-0.9-6.3-1-9.5
	c-0.1-1.6-0.1-3.2-0.1-4.8c0-1.6,0.2-3.2,0.4-4.8l0.2-1.2l0.2-1.2c0.1-0.4,0.2-0.8,0.3-1.2l0.2-0.6l0.1-0.3l0.1-0.2l0.1-0.1
	c0.6-1.6,1.5-2.9,2.5-4.2c1-1.3,2.2-2.4,3.3-3.5c1.2-1.1,2.4-2.1,3.7-3c2.5-1.9,5.2-3.7,7.9-5.3c2.7-1.7,5.5-3.2,8.3-4.7
	C74.3,20.1,77.2,18.7,80.1,17.3"/>
<path id="XMLID_6_" class="st0" d="M16.2,114.2c0,0,0.5,0,1.3-0.1c0.9,0,2.1-0.1,3.7-0.2c1.6-0.1,3.6-0.1,5.8-0.2
	c2.2-0.1,4.8-0.2,7.5-0.2c2.8-0.1,5.7-0.1,8.9-0.2c3.2-0.1,6.5-0.1,9.9-0.1c3.4,0,7-0.1,10.6-0.1c3.6,0,7.3,0,11,0c3.7,0,7.4,0,11,0
	c3.6,0,7.2,0.1,10.6,0.1c3.4,0,6.8,0.1,9.9,0.1c3.2,0,6.1,0.1,8.9,0.2c2.8,0.1,5.3,0.1,7.5,0.2c2.2,0.1,4.2,0.1,5.8,0.2
	c1.6,0.1,2.9,0.1,3.7,0.2c0.9,0,1.3,0.1,1.3,0.1s-0.5,0-1.3,0.1c-0.9,0-2.1,0.1-3.7,0.2c-1.6,0.1-3.6,0.1-5.8,0.2
	c-2.2,0.1-4.8,0.2-7.5,0.2c-2.8,0.1-5.7,0.1-8.9,0.2c-3.2,0.1-6.5,0.1-9.9,0.1c-3.4,0-7,0.1-10.6,0.1c-3.6,0-7.3,0-11,0
	c-3.7,0-7.4,0-11,0c-3.6,0-7.2-0.1-10.6-0.1c-3.4,0-6.8-0.1-9.9-0.1c-3.2,0-6.1-0.1-8.9-0.2c-2.8-0.1-5.3-0.1-7.5-0.2
	c-2.2-0.1-4.2-0.1-5.8-0.2c-1.6-0.1-2.9-0.1-3.7-0.2C16.7,114.3,16.2,114.2,16.2,114.2"/>
<path id="XMLID_5_" class="st0" d="M103.2,21.1c-5.5-9.1-16.4-5.4-21.9-4.4c-4.1,0.8-13.5,2.2-15.6,5.8c-4.9,8.4,4.6,34.9,12.5,40.6
	c3.8,2.8,14.8,2.2,18.1-1.2C103.1,55,108.2,29.4,103.2,21.1"/>
<path id="XMLID_4_" class="st0" d="M28.5,102.3c0.6-2.7,5.2-8.8,5.2-8.8c0.8,0,6,2.5,6.6,4c0.6,1.4-0.1,5.2-0.1,5.2
	c-0.4,0.5-0.5-3-2.4-1.9c-1.7,1-1.4,3.7-0.7,4.4c0.6,0.6,2.6-0.6,2.6-0.6s2.5,3.9,1.2,5.5c-1.3,1.5-10.1,0.1-12.1-2.1
	C27.7,106.6,27.6,105.6,28.5,102.3"/>
<path id="XMLID_3_" class="st0" d="M123.7,107.9c-0.3,0.6-1.4,1.4-1.4,1.4c-0.2-0.1-1-0.4-1.1-0.8c-0.1-0.4,0.2-1.2,0.2-1.2
	s-0.1,0.5,0.4,0.4c0.5-0.1,0.8-0.6,0.4-0.9c-0.2-0.2-0.8-0.5-0.9,0c-0.1,0.2-0.9-1.5-0.1-1.7c2.1-0.6,2.4,0.9,2.7,1.4
	C124,106.8,124,107.2,123.7,107.9"/>
<g id="XMLID_21_">
	<path id="XMLID_22_" class="st1" d="M26.4,143c-0.2-4.4-0.7-9.8-0.7-13.9c0-0.9,2.5-0.8,3.5-0.9c1.3,0,3.1-0.5,3.1,1.3
		c0,0.1,0,0.5-4.8,0.5l0.5,6.8l3.2,0c0.5,0,0.9,0.7,0.9,1.1c0,0.9-3,0.6-4,0.7l0.1,2c0.2,5,0.2,6.5,0.2,11.5c0,0.5-0.3,0.9-0.8,0.9
		c-0.3,0-0.9-0.1-1-0.5C26.6,150.6,26.4,145,26.4,143z"/>
	<path id="XMLID_24_" class="st1" d="M36.4,130.3c0.2-3.2,2.3-2.4,2.9,0c0.9,3.5,1.5,6.7,5.3,25.2c0,0.8-1,1.4-1.7,0.2l-1.3-6.3
		l-4.7,0.7c-0.3,1.6-0.5,4.7-0.6,6.2c-0.1,0.8-1.6,0.6-1.5,0L36.4,130.3z M37.1,146.6c0,0.2-0.1,1.6-0.1,1.9l4.4-0.6l-3.4-15.5
		C37.8,134.4,37.2,144.4,37.1,146.6z"/>
	<path id="XMLID_27_" class="st1" d="M47.8,141.1c0-1.1-0.2-7.4-0.2-9.1c0-0.3-0.2-3.4-0.2-3.8v-0.1c0-0.8,0.9-1,1.6-1
		c4.8,0,6.5,3.5,6.5,7.5c0,3.2-1.2,5.2-3.5,6.8c4,1.8,5,7.5,5,11.4c0,0.6-0.4,0.9-1,0.9c-0.4,0-0.6,0-0.8-0.6
		c-0.2-2.6-0.8-10-4.9-10c0,0-0.3,0-0.3,0c-0.4,3.9-0.1,7.9-0.3,11.9c-0.5,0.6-1.4,0.7-1.9,0C47.8,152.8,47.8,143.2,47.8,141.1z
		 M49.7,140.3c2.5-0.5,3.8-3.2,3.8-5.4c0-1.8-0.8-5.7-3.3-5.7c-0.1,0-1.2,0-1.2,0.3L49.7,140.3z"/>
	<path id="XMLID_30_" class="st1" d="M60.4,151.5l0-6.9c0-5-0.5-8.2-0.5-13.2l0-1.8c5.6-0.5,6.2-0.1,6.2,0.7c0,0.2-0.2,0.8-0.4,0.9
		h-3.8c-0.2,0-0.2,0.2-0.2,0.3c0,3.7,0.3,6.4,0.6,10.2c0.5,0.1,3.5,0,4,0c1.2,0,2,2.1,0.4,2.1h-4.4l0.1,8.2c0.8,0.2,5.3-0.7,5.3,0.9
		c0,0.4-0.2,0.8-0.7,0.9h-0.2c-1.3,0.1-6.2,0.5-6.3-0.5L60.4,151.5z"/>
	<path id="XMLID_32_" class="st1" d="M71,152.6c0.6,0.1,1,0.7,1.7,0.7c0.9,0,1.6-1.7,1.7-2.4c1.2-5.5,1.2-11.2,1.4-17.3
		c0-1.5,0-3.2,0.2-4.7c0.1-0.5,0.1-1,0.7-1c0.6,0.1,1.4,0.3,1.4,1.1c-0.7,6.9-0.5,14.4-1.3,19.9c-0.3,2.5-0.9,6.1-3.9,6.1
		c-0.1,0-0.3,0-0.5,0c-0.9-0.1-2.3-0.5-2.3-1.7v-0.2C70,152.7,70.5,152.6,71,152.6z"/>
	<path id="XMLID_34_" class="st1" d="M81.9,130.3c0.2-3.2,2.3-2.4,2.9,0c0.9,3.5,1.5,6.7,5.3,25.2c0,0.8-1,1.4-1.7,0.2l-1.3-6.3
		l-4.7,0.7c-0.3,1.6-0.5,4.7-0.6,6.2c-0.1,0.8-1.6,0.6-1.5,0L81.9,130.3z M82.5,146.6c0,0.2-0.1,1.6-0.1,1.9l4.4-0.6l-3.4-15.5
		C83.3,134.4,82.6,144.4,82.5,146.6z"/>
	<path id="XMLID_37_" class="st1" d="M93.1,130.3c0.7-1.3,1.7-0.1,2,0.3c2.1,6,3.5,12.1,6.1,18.4l0.3-4.9c0.4-4.4,0.4-8.2,0.4-12.6
		c0.1-0.6,0.8-0.9,1.3-0.9c0.4,0,0.8,0.1,1,0.5c-0.6,7.5-0.9,15.6-1.2,23.6l0,0.5c-0.1,0.2-0.5,0.7-0.8,0.7c-0.3,0-0.8-0.4-1-0.7
		c-2.2-6.5-4.6-12.9-6.7-19.5l-0.2,19.9c-0.8,1.8-2,0.9-2.1-0.2L93.1,130.3z"/>
	<path id="XMLID_39_" class="st1" d="M110,128.6h0.1c6.3,0.3,7.2,7.6,7.2,12.7c0,0.5,0,1,0,1.5c-0.2,6.6-2.1,12-8,12
		c-0.5,0-1,0-1.5-0.1c0,0,0-3.9,0.1-5.5c0.1-4.5,0.3-8.7,0.5-13.2c0-0.6,0.1-5.7,0.1-6.4l0-0.2C108.5,128.7,109.5,128.6,110,128.6z
		 M109.6,153.2c0.3,0,0.3,0,0.4,0c4.4,0,5.2-7.5,5.3-10.3c0.2-3.3,0-12-4.9-12.4L109.6,153.2z"/>
	<path id="XMLID_42_" class="st1" d="M126.6,129.2c7.8,0,8.8,24.8,1.1,25.5c-0.1,0-0.3,0-0.4,0c-2.9,0-4.5-1.7-5.4-5
		C121.5,147.6,117.8,129.1,126.6,129.2z M123.6,148.1c0.3,1.2,1.4,4.5,3.2,4.6c0.2,0,0.3,0,0.4,0c2.3-0.2,3.1-4.3,3.4-5.9
		c0.6-2.8,1-15.7-3.9-15.7h-0.3C121.1,131.6,122.9,145.6,123.6,148.1z"/>
</g>
<g id="XMLID_8_">
	<path id="XMLID_9_" class="st1" d="M43.4,159.9c0.2-0.2,0.5-0.4,0.8-0.4c1.1,0,1.1,1.2,1,2v0.2c-0.1,3.2-0.4,6.3-0.5,9.5
		c-0.1,2.2-1.1,10.9,2.3,10.9c1.6,0,2.6-3,2.8-4c1.2-5.6,1.9-11.4,1.9-17v-0.7c0-0.5,0.6-0.6,1-0.6c0.5,0,1,0.5,1,1l0,0.5
		c-0.3,4.9-0.7,9.4-1.6,14.3l-0.1,0.4c0,0.1,0,0.2-0.1,0.3c-0.4,2.3-1.3,7.5-4.8,7.5c-4,0-4.3-4.3-4.3-7.1V176c0-0.2,0-4.3,0.1-5.8
		C43,166.8,43,163.4,43.4,159.9z"/>
	<path id="XMLID_11_" class="st1" d="M57.3,168.7c0.1-5.1,0.5-8.8,1.4-8.8c0,0,0.1,0,0.1,0c0.2,0.2,0.9,0.3,1.1,1
		c0.6,2.3,1.4,6.5,3.3,9.2c0.2-0.2,1.4-2.3,2.1-3.4l0.2-0.3c1.2-2.1,2-3.6,2.7-5.7c0.2-0.4,0.4-0.6,0.9-0.6c0.4,0,0.7,0.2,1.1,0.5
		c-0.2,7-0.1,14.1-0.3,21.2l0,1.5c-0.2,0.4-0.5,0.8-1,0.8c-0.3,0-0.6-0.3-0.7-0.4l0-1.9c0.1-5.7-0.1-11.5,0.1-17.2
		c-0.8,1.4-1.5,2.7-2.2,4.2c-0.3,0.5-1.6,3.1-1.9,3.7c-0.2,0.4-1,1.4-1.5,0.3c-3.2-7.2-3.3-7.2-3.3-7.2c-0.7,5.7-0.8,11.6-0.8,17.4
		c-0.1,0.3-0.4,0.6-0.7,0.6c-0.2,0-0.8-0.2-0.9-0.4L57.3,168.7z"/>
	<path id="XMLID_13_" class="st1" d="M83.5,159.2c0.5,0,0.9,0.6,1,1.1c0.3,7.2,0.2,14.4,0.9,21.6c1-0.3,2.6-0.7,3.8-0.7
		c0.6,0,1.1,0.2,1.1,0.8c0,0.4-0.1,0.7-0.6,0.9c-1.1,0.4-2.5,0.3-3.6,0.6c-0.4,0.1-0.9,0.4-1.4,0.4c-0.4,0-0.9-0.4-1-0.9
		c-0.4-3.8-0.2-7.9-0.4-11.6l-0.4-7.8v-4C83,159.4,83.2,159.2,83.5,159.2z"/>
	<path id="XMLID_15_" class="st1" d="M94.4,161.2c0.2-2.9,2.1-2.2,2.6,0c0.8,3.2,1.4,6.1,4.9,22.9c0,0.7-1,1.2-1.5,0.2l-1.1-5.7
		l-4.3,0.6c-0.3,1.5-0.5,4.3-0.5,5.6c-0.1,0.8-1.4,0.6-1.4,0L94.4,161.2z M95,176c0,0.2-0.1,1.5-0.1,1.7l4-0.6L95.8,163
		C95.6,164.9,95.1,174,95,176z"/>
	<path id="XMLID_18_" class="st1" d="M104.8,171c0-1-0.2-6.8-0.2-8.3c0-0.3-0.2-3.1-0.2-3.5v-0.1c0-0.7,0.8-0.9,1.5-0.9
		c4.4,0,5.9,3.1,5.9,6.8c0,2.9-1.1,4.7-3.1,6.2c3.7,1.6,4.5,6.8,4.5,10.3c0,0.6-0.3,0.8-0.9,0.8c-0.4,0-0.5,0-0.7-0.5
		c-0.2-2.4-0.8-9.1-4.4-9.1c0,0-0.3,0-0.3,0c-0.3,3.6-0.1,7.2-0.3,10.8c-0.4,0.6-1.3,0.6-1.7,0C104.8,181.7,104.8,172.9,104.8,171z
		 M106.5,170.3c2.3-0.4,3.5-2.9,3.5-4.9c0-1.7-0.7-5.2-3-5.2c-0.1,0-1.1,0-1.1,0.3L106.5,170.3z"/>
</g>
</svg>
